<?xml version="1.0" standalone="no"?>
<!DOCTYPE svg PUBLIC "-//W3C//DTD SVG 20010904//EN"
 "http://www.w3.org/TR/2001/REC-SVG-20010904/DTD/svg10.dtd">
<svg version="1.0" xmlns="http://www.w3.org/2000/svg"
 width="200.000000pt" height="200.000000pt" viewBox="0 0 200.000000 200.000000"
 preserveAspectRatio="xMidYMid meet">
<metadata>
Created by potrace 1.11, written by Peter Selinger 2001-2013
</metadata>
<g transform="translate(0.000000,200.000000) scale(0.100000,-0.100000)"
fill="#000000" stroke="none">
<path d="M915 1760 c-254 -52 -438 -265 -449 -520 -5 -98 15 -188 60 -277 87
-173 261 -286 459 -300 261 -17 504 162 570 422 73 288 -119 601 -413 669 -66
15 -169 18 -227 6z"/>
<path d="M333 570 c-1 -11 4 -20 13 -20 16 0 15 3 17 -151 0 -93 -2 -114 -16
-124 -9 -7 -17 -17 -17 -24 0 -11 7 -13 60 -13 54 0 60 2 60 17 0 9 -7 18 -15
21 -25 10 -21 128 5 154 43 43 69 18 73 -70 3 -52 0 -66 -17 -81 -28 -27 -9
-42 54 -43 46 -1 50 1 50 22 0 13 -6 22 -15 22 -12 0 -15 16 -15 85 0 72 -3
88 -20 105 -24 24 -77 26 -108 4 l-22 -15 0 65 0 66 -43 0 c-36 0 -43 -3 -44
-20z"/>
<path d="M945 520 c-4 -11 -17 -28 -31 -36 -29 -19 -30 -31 -6 -38 16 -5 19
-18 20 -94 1 -76 3 -89 22 -104 23 -18 57 -22 97 -12 19 5 21 9 12 26 -7 12
-18 18 -29 15 -32 -8 -40 8 -43 86 -3 68 -1 77 15 78 10 1 24 2 31 3 6 0 13
11 15 23 3 20 0 22 -27 19 -18 -2 -31 1 -32 8 -1 6 -2 18 -3 26 -2 23 -33 24
-41 0z"/>
<path d="M1268 515 c-6 -13 -20 -27 -30 -31 -21 -6 -20 -41 0 -36 12 2 13 -3
14 -105 0 -53 13 -102 27 -104 3 0 15 -2 26 -5 11 -2 35 -2 53 2 41 6 42 38 1
40 -44 2 -49 11 -49 90 0 75 2 79 41 75 16 -2 33 35 20 43 -4 3 -19 3 -34 2
-24 -3 -27 0 -27 25 0 37 -26 39 -42 4z"/>
<path d="M142 462 c-37 -35 -46 -67 -38 -126 13 -85 73 -122 157 -97 41 12 44
17 30 40 -7 10 -16 11 -37 4 -30 -11 -67 -3 -79 17 -11 19 -17 79 -11 105 11
45 86 59 86 16 0 -14 6 -17 24 -14 19 4 23 10 21 35 -3 38 -18 48 -76 48 -38
0 -53 -6 -77 -28z"/>
<path d="M693 478 c-52 -25 -77 -149 -42 -205 25 -41 75 -53 122 -29 20 11 27
12 27 3 0 -8 11 -12 28 -11 15 1 33 3 40 3 17 1 15 30 -3 37 -12 5 -15 26 -15
104 0 80 -3 99 -16 104 -25 10 -117 6 -141 -6z m98 -40 c5 -64 3 -133 -6 -143
-16 -20 -49 -26 -68 -12 -26 18 -29 98 -6 136 14 24 26 31 49 31 17 0 30 -5
31 -12z"/>
<path d="M1456 458 c-60 -60 -56 -169 7 -209 26 -16 42 -19 82 -14 58 7 69 15
60 44 -6 19 -9 20 -33 8 -32 -15 -66 -12 -82 8 -18 22 -4 45 25 45 33 0 82 25
93 48 12 23 5 62 -15 84 -11 12 -30 18 -61 18 -36 0 -50 -6 -76 -32z m102 -32
c3 -11 -4 -26 -14 -33 -17 -13 -74 -18 -74 -7 0 10 23 49 34 57 19 13 51 3 54
-17z"/>
<path d="M1694 456 c-19 -19 -34 -45 -35 -57 0 -13 -2 -32 -4 -42 -4 -23 14
-87 29 -103 23 -22 83 -28 110 -10 14 9 26 11 28 6 2 -6 20 -12 41 -13 33 -3
37 -1 37 20 0 13 -6 23 -14 23 -10 0 -14 22 -15 97 -1 64 -6 100 -14 105 -7 4
-38 8 -70 8 -54 0 -62 -3 -93 -34z m117 -18 c6 -111 5 -132 -13 -150 -30 -30
-60 -21 -76 23 -13 33 -4 99 16 122 17 20 72 23 73 5z"/>
<path d="M1072 400 c-11 -8 -11 -40 -1 -41 5 -1 34 -2 63 -3 45 -1 56 2 60 17
2 10 -2 21 -10 24 -18 7 -104 9 -112 3z"/>
</g>
</svg>
